# Blender v2.93.10 OBJ File: ''
# www.blender.org
mtllib Camera.mtl
o Cube_Cube.004
v -0.731267 -0.263355 0.263355
v -0.731267 0.263355 0.263355
v -0.731267 -0.263355 -0.263355
v -0.731267 0.263355 -0.263355
v 0.731267 -0.263355 0.263355
v 0.731267 0.263355 0.263355
v 0.731267 -0.263355 -0.263355
v 0.731267 0.263355 -0.263355
v -1.057317 -0.472334 -0.472334
v -1.057317 -0.472334 0.472334
v -1.057317 0.472334 0.472334
v -1.057317 0.472334 -0.472334
v -0.415318 0.263355 0.178383
v -0.415318 0.263355 -0.178383
v 0.575324 0.263355 -0.178383
v 0.575324 0.263355 0.178383
v -0.415318 0.488566 0.178383
v -0.415318 0.488566 -0.178383
v 0.575324 0.488566 -0.178383
v 0.575324 0.488566 0.178383
vt 0.875000 0.500000
vt 0.875000 0.750000
vt 0.875000 0.750000
vt 0.625000 0.250000
vt 0.375000 0.500000
vt 0.375000 0.250000
vt 0.625000 0.500000
vt 0.375000 0.750000
vt 0.625000 0.750000
vt 0.375000 1.000000
vt 0.125000 0.750000
vt 0.125000 0.500000
vt 0.625000 0.750000
vt 0.625000 0.000000
vt 0.375000 0.250000
vt 0.375000 0.000000
vt 0.125000 0.500000
vt 0.625000 0.250000
vt 0.625000 1.000000
vt 0.375000 1.000000
vt 0.625000 0.250000
vt 0.625000 0.500000
vt 0.625000 0.500000
vt 0.875000 0.500000
vt 0.625000 1.000000
vt 0.875000 0.500000
vt 0.625000 0.750000
vt 0.875000 0.750000
vt 0.625000 1.000000
vt 0.875000 0.500000
vt 0.125000 0.750000
vt 0.625000 1.000000
vt 0.625000 0.250000
vt 0.875000 0.750000
vn 0.5396 0.8419 0.0000
vn 0.0000 0.0000 -1.0000
vn 1.0000 0.0000 0.0000
vn 0.0000 0.0000 1.0000
vn 0.0000 -1.0000 0.0000
vn 0.0000 1.0000 0.0000
vn -1.0000 0.0000 0.0000
vn 0.5396 -0.8419 0.0000
vn 0.5396 0.0000 -0.8419
vn 0.5396 0.0000 0.8419
usemtl None
s off
f 4/1/1 11/2/1 2/3/1
f 4/4/2 7/5/2 3/6/2
f 8/7/3 5/8/3 7/5/3
f 6/9/4 1/10/4 5/8/4
f 7/5/5 1/11/5 3/12/5
f 8/7/6 16/13/6 6/9/6
f 11/14/7 9/15/7 10/16/7
f 1/11/8 9/17/8 3/12/8
f 3/6/9 12/18/9 4/4/9
f 2/19/10 10/20/10 1/10/10
f 14/21/2 19/22/2 15/23/2
f 2/3/6 14/24/6 4/1/6
f 6/9/6 13/25/6 2/19/6
f 8/7/6 14/21/6 15/23/6
f 18/26/6 20/27/6 19/22/6
f 15/23/3 20/27/3 16/13/3
f 13/28/7 18/26/7 14/24/7
f 16/13/4 17/29/4 13/25/4
f 4/1/1 12/30/1 11/2/1
f 4/4/2 8/7/2 7/5/2
f 8/7/3 6/9/3 5/8/3
f 6/9/4 2/19/4 1/10/4
f 7/5/5 5/8/5 1/11/5
f 8/7/6 15/23/6 16/13/6
f 11/14/7 12/18/7 9/15/7
f 1/11/8 10/31/8 9/17/8
f 3/6/9 9/15/9 12/18/9
f 2/19/10 11/32/10 10/20/10
f 14/21/2 18/33/2 19/22/2
f 2/3/6 13/28/6 14/24/6
f 6/9/6 16/13/6 13/25/6
f 8/7/6 4/4/6 14/21/6
f 18/26/6 17/34/6 20/27/6
f 15/23/3 19/22/3 20/27/3
f 13/28/7 17/34/7 18/26/7
f 16/13/4 20/27/4 17/29/4
